<?xml version="1.0" standalone="no"?><!DOCTYPE svg PUBLIC "-//W3C//DTD SVG 1.1//EN" "http://www.w3.org/Graphics/SVG/1.1/DTD/svg11.dtd"><svg t="1493653357959" class="icon" style="" viewBox="0 0 1025 1024" version="1.1" xmlns="http://www.w3.org/2000/svg" p-id="725" xmlns:xlink="http://www.w3.org/1999/xlink" width="200.1953125" height="200"><defs><style type="text/css"></style></defs><path d="M608.74 930.28h-402A41.29 41.29 0 0 1 165.47 889V474.31a37.78 37.78 0 0 0-75.56 0V889a116.92 116.92 0 0 0 116.82 116.8h402a37.76 37.76 0 1 0 0-75.52zM648 493a37.79 37.79 0 0 0-49.75 19.48c-17.69 40.46-51 65.59-86.94 65.59-36.17 0-69.59-25.38-87.21-66.23a37.78 37.78 0 0 0-69.38 29.9c14 32.46 35.34 60 61.71 79.67 28.24 21.05 61 32.18 94.88 32.18 33.66 0 66.33-11 94.47-31.87 26.28-19.47 47.62-46.79 61.7-79A37.75 37.75 0 0 0 648 493z" p-id="726"></path><path d="M336.91 411.77a37.78 37.76 0 1 0 75.56 0 37.78 37.76 0 1 0-75.56 0Z" p-id="727"></path><path d="M610.24 411.77a37.78 37.76 0 1 0 75.56 0 37.78 37.76 0 1 0-75.56 0Z" p-id="728"></path><path d="M1009.89 384.85L535.67 29.36q-0.77-0.58-1.57-1.11-0.76-0.51-1.54-1l-0.11-0.07c-0.46-0.27-0.92-0.54-1.39-0.79l-0.33-0.18-1.13-0.57-0.62-0.3-0.81-0.36-1-0.41-0.44-0.17c-0.45-0.17-0.89-0.35-1.35-0.5h-0.05a37.65 37.65 0 0 0-10.58-2h-3.51a37.62 37.62 0 0 0-12.1 2.59l-0.32 0.12-1.07 0.46-0.71 0.31-0.71 0.34-1 0.53-0.4 0.22c-0.44 0.24-0.88 0.49-1.32 0.75l-0.18 0.11q-0.75 0.45-1.48 0.95h-0.06q-0.77 0.52-1.52 1.08L16.11 384.85a37.77 37.77 0 0 0 45.33 60.42L513 106.77l451.55 338.5a37.77 37.77 0 1 0 45.33-60.42z" p-id="729"></path><path d="M899.25 436.55a37.77 37.77 0 0 0-37.78 37.76V889a41.3 41.3 0 0 1-41.26 41.24h-83.3a37.76 37.76 0 1 0 0 75.52h83.3A116.92 116.92 0 0 0 937 889V474.31a37.77 37.77 0 0 0-37.75-37.76z" p-id="730"></path></svg>