<?xml version="1.0" standalone="no"?><!DOCTYPE svg PUBLIC "-//W3C//DTD SVG 1.1//EN" "http://www.w3.org/Graphics/SVG/1.1/DTD/svg11.dtd"><svg t="1493653688225" class="icon" style="" viewBox="0 0 1024 1024" version="1.1" xmlns="http://www.w3.org/2000/svg" p-id="843" xmlns:xlink="http://www.w3.org/1999/xlink" width="200" height="200"><defs><style type="text/css"></style></defs><path d="M414.47 293.13a37.78 37.78 0 1 0-37.78 37.76 37.77 37.77 0 0 0 37.78-37.76zM650 374.38a37.79 37.79 0 0 0-49.75 19.48c-17.69 40.46-51 65.59-86.94 65.59-36.17 0-69.59-25.38-87.21-66.23a37.78 37.78 0 0 0-69.38 29.9c14 32.46 35.34 60 61.71 79.67 28.24 21.05 61 32.18 94.88 32.18 33.66 0 66.33-11 94.47-31.87 26.28-19.47 47.62-46.79 61.7-79A37.75 37.75 0 0 0 650 374.38z m-32 557H179.04c-21-0.53-31.15-15.06-34.54-21.29a41.75 41.75 0 0 1 0.91-42.12l91.09-149.91a36.39 36.39 0 0 0-62.18-37.8l-91.1 149.87a113.8 113.8 0 0 0-2.6 114.78c19.66 36 55.76 58.13 96.58 59.17h440.86a36.39 36.39 0 0 0 0-72.77z m32-676a37.76 37.76 0 1 0 37.78 37.76A37.77 37.77 0 0 0 650 255.37z m212 273a370.5 370.5 0 1 0-81.15 122.22A368.14 368.14 0 0 0 862 528.41zM519.63 685.92a296.56 296.56 0 1 1 209.75-506.25c115.62 115.66 115.62 303.84 0 419.5a295.65 295.65 0 0 1-209.75 86.75zM943.5 830.13l-91.09-149.86a36.39 36.39 0 0 0-62.18 37.8l91.09 149.86a41.75 41.75 0 0 1 0.91 42.12c-3.39 6.2-13.5 20.66-34.34 21.28l-96.25 0.39a36.39 36.39 0 0 0 0.14 72.77h0.15l93.82-0.38H850.72c40.34-1.42 75.95-23.45 95.42-59.12a113.8 113.8 0 0 0-2.64-114.86z" p-id="844"></path></svg>